<?xml version="1.0" encoding="UTF-8"?>
<svg xmlns="http://www.w3.org/2000/svg" xmlns:xlink="http://www.w3.org/1999/xlink" width="300px" height="64px" viewBox="0 0 397 64" version="1.1">
<g id="surface1">
<path style=" stroke:none;fill-rule:nonzero;fill:rgb(100%,100%,100%);fill-opacity:1;" d="M 99.085938 45.675781 C 93.652344 45.675781 89.101562 43.839844 85.433594 40.164062 C 81.769531 36.488281 79.9375 31.902344 79.9375 26.402344 C 79.9375 21.003906 81.769531 16.453125 85.433594 12.753906 C 89.101562 9.082031 93.652344 7.242188 99.085938 7.242188 C 104.550781 7.242188 109.238281 8.957031 113.152344 12.378906 L 108.066406 17.964844 C 105.445312 15.917969 102.453125 14.890625 99.085938 14.890625 C 95.648438 14.917969 92.867188 16.003906 90.746094 18.152344 C 88.652344 20.277344 87.605469 23.003906 87.605469 26.328125 C 87.605469 29.902344 88.664062 32.738281 90.785156 34.839844 C 92.902344 36.9375 95.683594 37.988281 99.125 37.988281 C 101.894531 37.988281 104.011719 37.453125 105.484375 36.375 L 105.484375 29.777344 L 100.398438 29.816406 L 100.398438 22.617188 L 113.152344 22.617188 L 113.152344 40.574219 C 109.261719 43.976562 104.574219 45.675781 99.085938 45.675781 Z M 126.878906 20.027344 L 126.878906 22.878906 C 128.726562 21.003906 130.957031 20.066406 133.574219 20.066406 C 134.398438 20.066406 135.183594 20.128906 135.933594 20.253906 L 134.808594 27.339844 C 133.988281 26.589844 132.800781 26.191406 131.257812 26.140625 C 129.511719 26.265625 128.050781 27.527344 126.878906 29.925781 L 126.878906 45.675781 L 119.734375 45.675781 L 119.734375 20.816406 Z M 152.203125 45.9375 C 148.488281 45.9375 145.382812 44.6875 142.890625 42.1875 C 140.421875 39.6875 139.1875 36.589844 139.1875 32.890625 C 139.1875 29.164062 140.421875 26.054688 142.890625 23.554688 C 145.382812 21.054688 148.488281 19.804688 152.203125 19.804688 C 155.917969 19.804688 159.023438 21.054688 161.519531 23.554688 C 164.011719 26.054688 165.257812 29.164062 165.257812 32.890625 C 165.257812 36.613281 164.011719 39.714844 161.519531 42.1875 C 159.023438 44.6875 155.917969 45.9375 152.203125 45.9375 Z M 152.203125 39.75 C 154.125 39.75 155.695312 39.089844 156.917969 37.765625 C 158.136719 36.464844 158.75 34.839844 158.75 32.890625 C 158.75 30.941406 158.136719 29.316406 156.917969 28.015625 C 155.695312 26.691406 154.113281 26.027344 152.167969 26.027344 C 150.246094 26.027344 148.675781 26.691406 147.453125 28.015625 C 146.257812 29.316406 145.65625 30.941406 145.65625 32.890625 C 145.65625 34.839844 146.257812 36.464844 147.453125 37.765625 C 148.675781 39.089844 150.257812 39.75 152.203125 39.75 Z M 185.53125 36.601562 L 185.53125 20.027344 L 192.675781 20.027344 L 192.675781 45.675781 L 185.53125 45.675781 L 185.53125 43.351562 C 183.8125 44.902344 181.765625 45.675781 179.398438 45.675781 C 176.15625 45.675781 173.6875 44.6875 171.992188 42.714844 C 170.269531 40.738281 169.410156 38.476562 169.410156 35.925781 L 169.410156 20.027344 L 176.59375 20.027344 L 176.59375 34.128906 C 176.59375 35.828125 177.015625 37.152344 177.863281 38.101562 C 178.710938 39.050781 179.996094 39.550781 181.714844 39.601562 C 183.210938 39.5 184.484375 38.5 185.53125 36.601562 Z M 205.917969 56.472656 L 198.773438 56.4375 L 198.773438 20.816406 L 205.917969 20.027344 L 205.917969 22.089844 C 207.839844 20.714844 209.722656 20.027344 211.566406 20.027344 C 215.480469 20.027344 218.585938 21.316406 220.878906 23.890625 C 223.199219 26.441406 224.359375 29.425781 224.359375 32.851562 C 224.359375 36.277344 223.199219 39.265625 220.878906 41.8125 C 218.585938 44.386719 215.480469 45.675781 211.566406 45.675781 C 208.996094 45.5 207.113281 44.800781 205.917969 43.574219 Z M 205.917969 30.527344 L 205.917969 34.6875 C 206.265625 37.5625 208.0625 39.25 211.304688 39.75 C 215.394531 39.425781 217.699219 37.300781 218.222656 33.378906 C 218.050781 28.578125 215.742188 26.089844 211.304688 25.914062 C 208.0625 26.441406 206.265625 27.976562 205.917969 30.527344 Z M 241.003906 45.9375 C 237.289062 45.9375 234.195312 44.6875 231.726562 42.1875 C 229.234375 39.6875 227.988281 36.589844 227.988281 32.890625 C 227.988281 29.164062 229.234375 26.054688 231.726562 23.554688 C 234.195312 21.054688 237.289062 19.804688 241.003906 19.804688 C 244.71875 19.804688 247.824219 21.054688 250.316406 23.554688 C 252.8125 26.054688 254.058594 29.164062 254.058594 32.890625 C 254.058594 36.613281 252.8125 39.714844 250.316406 42.1875 C 247.824219 44.6875 244.71875 45.9375 241.003906 45.9375 Z M 241.003906 39.75 C 242.949219 39.75 244.519531 39.089844 245.71875 37.765625 C 246.9375 36.464844 247.550781 34.839844 247.550781 32.890625 C 247.550781 30.941406 246.9375 29.316406 245.71875 28.015625 C 244.519531 26.691406 242.9375 26.027344 240.96875 26.027344 C 239.046875 26.027344 237.476562 26.691406 236.253906 28.015625 C 235.058594 29.316406 234.457031 30.941406 234.457031 32.890625 C 234.457031 34.839844 235.058594 36.464844 236.253906 37.765625 C 237.476562 39.089844 239.058594 39.75 241.003906 39.75 Z M 265.992188 29.289062 L 265.992188 45.675781 L 258.808594 45.675781 L 258.808594 20.816406 L 265.992188 20.027344 L 265.992188 22.316406 C 267.585938 20.816406 269.632812 20.066406 272.125 20.066406 C 275.34375 20.066406 277.8125 21.042969 279.53125 22.992188 C 281.402344 21.042969 284.207031 20.066406 287.949219 20.066406 C 291.191406 20.066406 293.671875 21.042969 295.390625 22.992188 C 297.085938 24.964844 297.933594 27.242188 297.933594 29.816406 L 297.933594 45.675781 L 290.789062 45.675781 L 290.789062 31.578125 C 290.789062 29.878906 290.40625 28.550781 289.632812 27.601562 C 288.859375 26.679688 287.613281 26.191406 285.890625 26.140625 C 284.46875 26.242188 283.246094 27.179688 282.226562 28.953125 C 282.125 29.476562 282.074219 30.015625 282.074219 30.566406 L 282.074219 45.675781 L 274.929688 45.675781 L 274.929688 31.578125 C 274.929688 29.878906 274.542969 28.550781 273.769531 27.601562 C 273 26.679688 271.75 26.191406 270.03125 26.140625 C 268.460938 26.242188 267.113281 27.289062 265.992188 29.289062 Z M 307.546875 27.492188 L 304.742188 23.140625 C 307.984375 21.089844 311.738281 20.066406 316.003906 20.066406 C 319.070312 20.066406 321.488281 20.917969 323.257812 22.617188 C 325.054688 24.339844 325.953125 26.902344 325.953125 30.300781 L 325.953125 45.675781 L 318.808594 45.675781 L 318.808594 43.652344 C 316.714844 45 314.832031 45.675781 313.160156 45.675781 C 309.769531 45.675781 307.210938 44.949219 305.492188 43.5 C 303.796875 42.050781 302.949219 40.050781 302.949219 37.5 C 302.949219 35.101562 303.757812 32.964844 305.378906 31.089844 C 306.976562 29.214844 309.570312 28.277344 313.160156 28.277344 C 314.832031 28.277344 316.714844 28.789062 318.808594 29.816406 L 318.808594 29.027344 C 318.757812 27.152344 317.386719 26.128906 314.691406 25.953125 C 311.625 25.953125 309.246094 26.464844 307.546875 27.492188 Z M 318.808594 37.988281 L 318.808594 35.101562 C 318.132812 33.777344 316.511719 33.113281 313.945312 33.113281 C 310.878906 33.464844 309.257812 34.664062 309.082031 36.714844 C 309.257812 38.738281 310.878906 39.839844 313.945312 40.011719 C 316.511719 40.011719 318.132812 39.339844 318.808594 37.988281 Z M 339.53125 29.402344 L 339.53125 45.675781 L 332.347656 45.675781 L 332.347656 20.816406 L 339.53125 20.027344 L 339.53125 22.355469 C 341.25 20.828125 343.296875 20.066406 345.664062 20.066406 C 348.90625 20.066406 351.375 21.042969 353.070312 22.992188 C 354.765625 24.964844 355.613281 27.242188 355.613281 29.816406 L 355.613281 45.675781 L 348.46875 45.675781 L 348.46875 31.578125 C 348.46875 29.878906 348.046875 28.550781 347.199219 27.601562 C 346.324219 26.679688 345.027344 26.191406 343.308594 26.140625 C 341.835938 26.242188 340.578125 27.328125 339.53125 29.402344 Z M 368.78125 45.675781 L 361.636719 45.675781 L 361.636719 20.027344 L 368.78125 20.027344 Z M 361.375 13.917969 C 361.375 14.941406 361.710938 15.792969 362.386719 16.46875 C 363.082031 17.140625 364.03125 17.480469 365.226562 17.480469 C 366.398438 17.480469 367.335938 17.140625 368.035156 16.46875 C 368.707031 15.792969 369.042969 14.941406 369.042969 13.917969 C 369.042969 12.890625 368.707031 12.03125 368.035156 11.332031 C 367.335938 10.628906 366.375 10.28125 365.152344 10.28125 C 364.007812 10.28125 363.082031 10.628906 362.386719 11.332031 C 361.710938 12.03125 361.375 12.890625 361.375 13.917969 Z M 378.320312 27.492188 L 375.515625 23.140625 C 378.757812 21.089844 382.507812 20.066406 386.773438 20.066406 C 389.839844 20.066406 392.273438 20.917969 394.066406 22.617188 C 395.839844 24.339844 396.722656 26.902344 396.722656 30.300781 L 396.722656 45.675781 L 389.578125 45.675781 L 389.578125 43.652344 C 387.507812 45 385.640625 45.675781 383.96875 45.675781 C 380.550781 45.675781 377.996094 44.949219 376.300781 43.5 C 374.578125 42.050781 373.71875 40.050781 373.71875 37.5 C 373.71875 35.101562 374.53125 32.964844 376.148438 31.089844 C 377.746094 29.214844 380.351562 28.277344 383.96875 28.277344 C 385.613281 28.277344 387.484375 28.789062 389.578125 29.816406 L 389.578125 29.027344 C 389.554688 27.152344 388.195312 26.128906 385.5 25.953125 C 382.433594 25.953125 380.039062 26.464844 378.320312 27.492188 Z M 389.578125 37.988281 L 389.578125 35.101562 C 388.90625 33.777344 387.285156 33.113281 384.714844 33.113281 C 381.648438 33.464844 380.027344 34.664062 379.851562 36.714844 C 380.027344 38.738281 381.648438 39.839844 384.714844 40.011719 C 387.285156 40.011719 388.90625 39.339844 389.578125 37.988281 Z M 389.578125 37.988281 "/>
<path style=" stroke:none;fill-rule:nonzero;fill:rgb(100%,100%,100%);fill-opacity:1;" d="M 32.085938 64.023438 C 40.601562 64.023438 48.585938 60.746094 54.59375 54.722656 C 60.601562 48.703125 63.871094 40.699219 63.871094 32.164062 C 63.871094 23.628906 60.601562 15.625 54.59375 9.605469 C 48.585938 3.582031 40.601562 0.304688 32.085938 0.304688 C 23.570312 0.304688 15.585938 3.582031 9.582031 9.605469 C 3.574219 15.625 0.304688 23.628906 0.304688 32.164062 C 0.304688 40.699219 3.574219 48.703125 9.582031 54.722656 C 15.585938 60.746094 23.570312 64.023438 32.085938 64.023438 Z M 33.914062 58.609375 C 33.304688 58.6875 32.695312 58.6875 32.085938 58.6875 C 31.25 58.6875 30.414062 58.609375 29.578125 58.535156 C 26.839844 54.265625 24.789062 49.695312 23.570312 44.890625 L 37.03125 44.890625 C 37.484375 46.035156 38.324219 47.101562 39.3125 47.789062 C 38.019531 51.597656 36.191406 55.179688 33.914062 58.609375 Z M 41.136719 57.085938 C 42.582031 54.417969 43.722656 51.75 44.632812 48.933594 C 46.839844 48.472656 48.585938 46.949219 49.421875 44.890625 L 55.277344 44.890625 C 52.238281 50.457031 47.140625 54.800781 41.136719 57.085938 Z M 58.472656 32.164062 C 58.472656 34.679688 58.089844 37.117188 57.484375 39.480469 L 49.269531 39.480469 C 48.816406 38.488281 48.054688 37.574219 47.140625 36.890625 C 47.292969 35.210938 47.371094 33.535156 47.371094 31.859375 C 47.371094 29.496094 47.21875 27.132812 46.914062 24.847656 L 57.40625 24.847656 C 58.167969 27.132812 58.472656 29.648438 58.472656 32.164062 Z M 55.277344 19.4375 L 46 19.4375 C 45.011719 15.242188 43.570312 11.28125 41.589844 7.46875 C 47.371094 9.679688 52.238281 14.023438 55.277344 19.4375 Z M 42.046875 31.859375 C 42.046875 33.15625 41.972656 34.449219 41.894531 35.746094 C 39.765625 36.203125 38.019531 37.574219 37.183594 39.480469 L 22.507812 39.480469 C 22.203125 37.195312 21.976562 34.832031 21.976562 32.546875 C 21.976562 31.097656 22.050781 29.648438 22.203125 28.199219 C 24.179688 27.820312 25.777344 26.523438 26.765625 24.847656 L 41.589844 24.847656 C 41.894531 27.132812 42.046875 29.496094 42.046875 31.859375 Z M 30.109375 5.792969 C 30.792969 5.71875 31.480469 5.71875 32.085938 5.71875 C 32.847656 5.71875 33.609375 5.71875 34.367188 5.792969 C 37.105469 10.0625 39.160156 14.632812 40.375 19.4375 L 27.144531 19.4375 C 26.6875 18.140625 25.851562 16.996094 24.789062 16.160156 C 26.15625 12.5 27.90625 9.070312 30.109375 5.792969 Z M 22.886719 7.316406 C 21.59375 9.757812 20.453125 12.347656 19.542969 14.9375 C 17.183594 15.394531 15.285156 17.148438 14.523438 19.359375 L 8.972656 19.359375 C 11.9375 13.949219 16.878906 9.605469 22.886719 7.316406 Z M 5.703125 32.164062 C 5.703125 29.648438 6.082031 27.132812 6.769531 24.847656 L 15.054688 24.847656 C 15.511719 25.6875 16.195312 26.449219 16.957031 27.058594 C 16.804688 28.886719 16.652344 30.714844 16.652344 32.546875 C 16.652344 34.90625 16.804688 37.195312 17.109375 39.480469 L 6.769531 39.480469 C 6.007812 37.117188 5.703125 34.679688 5.703125 32.164062 Z M 18.019531 44.816406 C 19.007812 48.933594 20.453125 52.972656 22.429688 56.78125 C 16.652344 54.496094 11.863281 50.226562 8.898438 44.816406 Z M 18.019531 44.816406 "/>
</g>
</svg>
